<?xml version="1.0" encoding="utf-8"?>
<!-- Generator: Adobe Illustrator 27.5.0, SVG Export Plug-In . SVG Version: 6.00 Build 0)  -->
<svg version="1.1" xmlns="http://www.w3.org/2000/svg" xmlns:xlink="http://www.w3.org/1999/xlink" x="0px" y="0px"
	 viewBox="0 0 500 500" style="enable-background:new 0 0 500 500;" xml:space="preserve">
<g id="BACKGROUND">
	<rect style="fill:#FFFBF8;" width="500" height="500"/>
</g>
<g id="OBJECTS">
	<g>
		
			<polyline style="fill:none;stroke:#000000;stroke-width:0.75;stroke-linecap:round;stroke-linejoin:round;stroke-miterlimit:10;" points="
			423.687,215.191 422.352,211.142 426.207,211.001 424.396,206.108 428.824,206.214 428.434,202.012 		"/>
		
			<polyline style="fill:none;stroke:#000000;stroke-width:0.75;stroke-linecap:round;stroke-linejoin:round;stroke-miterlimit:10;" points="
			66.287,465.254 64.951,461.204 68.807,461.064 66.995,456.171 71.424,456.277 71.033,452.074 		"/>
		
			<polyline style="fill:none;stroke:#000000;stroke-width:0.75;stroke-linecap:round;stroke-linejoin:round;stroke-miterlimit:10;" points="
			384.276,22.932 388.401,21.852 388.3,25.709 393.297,24.207 392.914,28.62 397.133,28.494 		"/>
		
			<polyline style="fill:none;stroke:#000000;stroke-width:0.75;stroke-linecap:round;stroke-linejoin:round;stroke-miterlimit:10;" points="
			387.696,368.949 387.377,373.201 383.763,371.853 383.56,377.066 379.51,375.271 378.26,379.302 		"/>
		
			<polyline style="fill:none;stroke:#000000;stroke-width:0.75;stroke-linecap:round;stroke-linejoin:round;stroke-miterlimit:10;" points="
			52.983,97.792 55.27,101.39 51.567,102.472 54.523,106.771 		"/>
		
			<polyline style="fill:none;stroke:#000000;stroke-width:0.75;stroke-linecap:round;stroke-linejoin:round;stroke-miterlimit:10;" points="
			116.645,318.593 118.933,322.191 115.23,323.272 118.186,327.572 		"/>
		
			<rect x="464.428" y="264.14" transform="matrix(0.7901 -0.6129 0.6129 0.7901 -65.3113 341.8975)" style="fill:none;stroke:#000000;stroke-width:0.75;stroke-linecap:round;stroke-linejoin:round;stroke-miterlimit:10;" width="4.362" height="4.362"/>
		
			<rect x="405.707" y="453.385" transform="matrix(0.7901 -0.613 0.613 0.7901 -193.6347 345.6412)" style="fill:none;stroke:#000000;stroke-width:0.75;stroke-linecap:round;stroke-linejoin:round;stroke-miterlimit:10;" width="4.362" height="4.362"/>
		
			<rect x="25.06" y="156.844" transform="matrix(0.7901 -0.6129 0.6129 0.7901 -91.7563 50.0718)" style="fill:none;stroke:#000000;stroke-width:0.75;stroke-linecap:round;stroke-linejoin:round;stroke-miterlimit:10;" width="4.362" height="4.362"/>
		
			<rect x="211.049" y="19.671" transform="matrix(0.998 -0.0627 0.0627 0.998 -0.951 13.4222)" style="fill:none;stroke:#000000;stroke-width:0.75;stroke-linecap:round;stroke-linejoin:round;stroke-miterlimit:10;" width="4.362" height="4.362"/>
		
			<rect x="466.482" y="54.296" transform="matrix(0.998 -0.0627 0.0627 0.998 -2.6202 29.5176)" style="fill:none;stroke:#000000;stroke-width:0.75;stroke-linecap:round;stroke-linejoin:round;stroke-miterlimit:10;" width="4.362" height="4.362"/>
		
			<circle style="fill:none;stroke:#000000;stroke-width:0.75;stroke-linecap:round;stroke-linejoin:round;stroke-miterlimit:10;" cx="36.686" cy="32.952" r="4.856"/>
		
			<circle style="fill:none;stroke:#000000;stroke-width:0.75;stroke-linecap:round;stroke-linejoin:round;stroke-miterlimit:10;" cx="287.697" cy="40.564" r="4.856"/>
		
			<circle style="fill:none;stroke:#000000;stroke-width:0.75;stroke-linecap:round;stroke-linejoin:round;stroke-miterlimit:10;" cx="71.424" cy="379.302" r="4.856"/>
		<path d="M41.542,231.075c0-1.023,0.829-1.852,1.852-1.852c1.023,0,1.852,0.829,1.852,1.852c0,1.023-0.829,1.852-1.852,1.852
			C42.371,232.927,41.542,232.098,41.542,231.075z"/>
		<path d="M20.477,340.237c0-1.023,0.829-1.852,1.852-1.852c1.023,0,1.852,0.829,1.852,1.852c0,1.023-0.829,1.852-1.852,1.852
			C21.306,342.089,20.477,341.26,20.477,340.237z"/>
		<path d="M113.378,40.564c0-1.023,0.829-1.852,1.852-1.852c1.023,0,1.851,0.829,1.851,1.852s-0.829,1.852-1.851,1.852
			C114.207,42.415,113.378,41.586,113.378,40.564z"/>
		<path d="M444.757,340.237c0-1.023,0.829-1.852,1.852-1.852c1.022,0,1.852,0.829,1.852,1.852c0,1.023-0.829,1.852-1.852,1.852
			C445.586,342.089,444.757,341.26,444.757,340.237z"/>
		<path d="M466.812,398.936c0-1.023,0.829-1.852,1.852-1.852s1.852,0.829,1.852,1.852s-0.829,1.852-1.852,1.852
			S466.812,399.958,466.812,398.936z"/>
		<path d="M472.487,141.557c0-1.023,0.829-1.852,1.852-1.852c1.023,0,1.852,0.829,1.852,1.852c0,1.023-0.829,1.852-1.852,1.852
			C473.316,143.409,472.487,142.58,472.487,141.557z"/>
		<path d="M121.19,424.777c0-1.023,0.829-1.852,1.852-1.852c1.023,0,1.852,0.829,1.852,1.852c0,1.023-0.829,1.852-1.852,1.852
			C122.019,426.628,121.19,425.799,121.19,424.777z"/>
	</g>
	<g>
		<g>
			<rect x="162.28" y="342.089" style="fill:#94332A;" width="104.906" height="15.209"/>
			
				<line style="fill:none;stroke:#000000;stroke-width:0.75;stroke-linecap:round;stroke-linejoin:round;stroke-miterlimit:10;" x1="193.322" y1="357.297" x2="172.873" y2="458.626"/>
			
				<line style="fill:none;stroke:#000000;stroke-width:0.75;stroke-linecap:round;stroke-linejoin:round;stroke-miterlimit:10;" x1="173.749" y1="357.297" x2="194.198" y2="458.626"/>
			
				<line style="fill:none;stroke:#000000;stroke-width:0.75;stroke-linecap:round;stroke-linejoin:round;stroke-miterlimit:10;" x1="255.41" y1="357.297" x2="234.961" y2="458.626"/>
			
				<line style="fill:none;stroke:#000000;stroke-width:0.75;stroke-linecap:round;stroke-linejoin:round;stroke-miterlimit:10;" x1="235.837" y1="357.297" x2="256.286" y2="458.626"/>
		</g>
		<g>
			<g>
				<path style="fill:#39D188;" d="M302.15,414.497l1.409,20.908l26.611,2.738c0,0,3.399-19.403,5.165-25.955
					C335.335,412.188,315.464,409.358,302.15,414.497z"/>
				<g>
					<path style="fill:#FFCA36;" d="M331.653,429.956c9.703,1.956,28.56,3.617,33.967,7.294c4.61,3.134,9.329,11.298,9.486,15.904
						c0.197,5.751-9.603,5.47-9.603,5.47l-43.87-0.03c-21.61,0.739-21.057-4.566-21.057-4.566l0.241-18.12
						c0.025-1.873,1.689-3.3,3.543-3.029C312.26,434.033,330.873,436.087,331.653,429.956z"/>
					
						<path style="fill:none;stroke:#000000;stroke-width:0.75;stroke-linecap:round;stroke-linejoin:round;stroke-miterlimit:10;" d="
						M300.637,448.918c0,0,52.832,5.528,73.471,0"/>
					
						<ellipse style="fill:none;stroke:#000000;stroke-width:0.75;stroke-linecap:round;stroke-linejoin:round;stroke-miterlimit:10;" cx="314.028" cy="441.412" rx="4.38" ry="5.104"/>
					
						<path style="fill:none;stroke:#000000;stroke-width:0.75;stroke-linecap:round;stroke-linejoin:round;stroke-miterlimit:10;" d="
						M350.862,451.375c0,0-2.555-14.582,11.091-15.97"/>
				</g>
			</g>
			<g>
				<path style="fill:#39D188;" d="M247.199,414.497l1.409,20.908l26.611,2.738c0,0,3.399-19.403,5.165-25.955
					C280.385,412.188,260.513,409.358,247.199,414.497z"/>
				<g>
					<path style="fill:#FFCA36;" d="M276.702,429.956c9.703,1.956,28.56,3.617,33.967,7.294c4.61,3.134,9.329,11.298,9.486,15.904
						c0.197,5.751-9.603,5.47-9.603,5.47l-43.87-0.03c-21.61,0.739-21.057-4.566-21.057-4.566l0.241-18.12
						c0.025-1.873,1.689-3.3,3.543-3.029C257.309,434.033,275.922,436.087,276.702,429.956z"/>
					
						<path style="fill:none;stroke:#000000;stroke-width:0.75;stroke-linecap:round;stroke-linejoin:round;stroke-miterlimit:10;" d="
						M276.702,429.956c9.703,1.956,28.56,3.617,33.967,7.294c4.61,3.134,9.329,11.298,9.486,15.904
						c0.197,5.751-9.603,5.47-9.603,5.47"/>
					
						<path style="fill:none;stroke:#000000;stroke-width:0.75;stroke-linecap:round;stroke-linejoin:round;stroke-miterlimit:10;" d="
						M245.687,448.918c0,0,52.832,5.528,73.471,0"/>
					
						<ellipse style="fill:none;stroke:#000000;stroke-width:0.75;stroke-linecap:round;stroke-linejoin:round;stroke-miterlimit:10;" cx="259.077" cy="441.412" rx="4.38" ry="5.104"/>
					
						<path style="fill:none;stroke:#000000;stroke-width:0.75;stroke-linecap:round;stroke-linejoin:round;stroke-miterlimit:10;" d="
						M295.911,451.375c0,0-2.555-14.582,11.091-15.97"/>
				</g>
			</g>
			<g>
				<path d="M234.752,282.137c0,0-31.894,18.153-15.167,45.29c16.727,27.137,85.593,19.061,85.593,19.061
					s-5.028,35.098-3.029,68.009c0,0,19.336,0,33.186-2.31c0,0,23.171-77.247,23.171-93.992s-22.328-28.997-42.837-34.08
					C295.16,279.033,234.752,282.137,234.752,282.137z"/>
				<path d="M179.641,282.137c0,0-26.332,26.244-9.604,53.381c16.727,27.137,80.031,10.97,80.031,10.97s-5.028,35.098-3.029,68.009
					c0,0,19.336,0,33.186-2.31c0,0,23.171-77.247,23.171-93.992s-22.328-28.997-42.837-34.08
					C240.049,279.033,179.641,282.137,179.641,282.137z"/>
				
					<path style="fill:none;stroke:#FFFBF8;stroke-width:0.75;stroke-linecap:round;stroke-linejoin:round;stroke-miterlimit:10;" d="
					M294.976,362.048c3.936-20.422,8.42-38.009,8.42-43.852c0-16.744-22.328-28.997-42.837-34.08"/>
			</g>
			<g>
				<path style="fill:#39D188;" d="M229.336,159.167c0,0-26.648,0-45.139,9.789c-18.491,9.789-67.98,106.049-4.351,110.944h106.049
					c0,0,22.297-9.245,17.947-75.05C303.843,204.849,302.211,158.623,229.336,159.167z"/>
				<g>
					<defs>
						<path id="SVGID_1_" d="M229.336,159.167c0,0-26.648,0-45.139,9.789c-18.491,9.789-67.98,106.049-4.351,110.944h106.049
							c0,0,22.297-9.245,17.947-75.05C303.843,204.849,302.211,158.623,229.336,159.167z"/>
					</defs>
					<clipPath id="SVGID_00000168805536223636530270000003565182575903426195_">
						<use xlink:href="#SVGID_1_"  style="overflow:visible;"/>
					</clipPath>
					<g style="clip-path:url(#SVGID_00000168805536223636530270000003565182575903426195_);">
						<path style="fill:#0AA051;" d="M331.194,166.943c0,0.548-0.444,0.992-0.993,0.992c-0.548,0-0.992-0.444-0.992-0.992
							c0-0.548,0.444-0.992,0.992-0.992C330.749,165.95,331.194,166.395,331.194,166.943z"/>
						<path style="fill:#0AA051;" d="M308.397,166.943c0,0.548-0.444,0.992-0.992,0.992c-0.548,0-0.992-0.444-0.992-0.992
							c0-0.548,0.444-0.992,0.992-0.992C307.953,165.95,308.397,166.395,308.397,166.943z"/>
						<circle style="fill:#0AA051;" cx="284.609" cy="166.943" r="0.992"/>
						<path style="fill:#0AA051;" d="M262.805,166.943c0,0.548-0.444,0.992-0.992,0.992s-0.992-0.444-0.992-0.992
							c0-0.548,0.444-0.992,0.992-0.992S262.805,166.395,262.805,166.943z"/>
						<path style="fill:#0AA051;" d="M240.009,166.943c0,0.548-0.444,0.992-0.992,0.992c-0.548,0-0.992-0.444-0.992-0.992
							c0-0.548,0.444-0.992,0.992-0.992C239.564,165.95,240.009,166.395,240.009,166.943z"/>
						<path style="fill:#0AA051;" d="M217.213,166.943c0,0.548-0.444,0.992-0.993,0.992c-0.548,0-0.992-0.444-0.992-0.992
							c0-0.548,0.444-0.992,0.992-0.992C216.768,165.95,217.213,166.395,217.213,166.943z"/>
						<path style="fill:#0AA051;" d="M194.416,166.943c0,0.548-0.444,0.992-0.992,0.992s-0.992-0.444-0.992-0.992
							c0-0.548,0.444-0.992,0.992-0.992S194.416,166.395,194.416,166.943z"/>
						<circle style="fill:#0AA051;" cx="170.628" cy="166.943" r="0.992"/>
						<circle style="fill:#0AA051;" cx="147.831" cy="166.943" r="0.992"/>
						<path style="fill:#0AA051;" d="M319.795,182.787c0,0.548-0.444,0.992-0.992,0.992c-0.548,0-0.992-0.444-0.992-0.992
							s0.444-0.992,0.992-0.992C319.351,181.795,319.795,182.239,319.795,182.787z"/>
						<path style="fill:#0AA051;" d="M296.999,182.787c0,0.548-0.444,0.992-0.992,0.992c-0.548,0-0.992-0.444-0.992-0.992
							s0.444-0.992,0.992-0.992C296.555,181.795,296.999,182.239,296.999,182.787z"/>
						<path style="fill:#0AA051;" d="M274.203,182.787c0,0.548-0.444,0.992-0.992,0.992s-0.992-0.444-0.992-0.992
							s0.444-0.992,0.992-0.992S274.203,182.239,274.203,182.787z"/>
						<path style="fill:#0AA051;" d="M251.407,182.787c0,0.548-0.444,0.992-0.992,0.992c-0.548,0-0.992-0.444-0.992-0.992
							s0.444-0.992,0.992-0.992C250.962,181.795,251.407,182.239,251.407,182.787z"/>
						<path style="fill:#0AA051;" d="M228.611,182.787c0,0.548-0.444,0.992-0.993,0.992c-0.548,0-0.992-0.444-0.992-0.992
							s0.444-0.992,0.992-0.992C228.166,181.795,228.611,182.239,228.611,182.787z"/>
						<path style="fill:#0AA051;" d="M205.814,182.787c0,0.548-0.444,0.992-0.992,0.992c-0.548,0-0.992-0.444-0.992-0.992
							s0.444-0.992,0.992-0.992C205.37,181.795,205.814,182.239,205.814,182.787z"/>
						<path style="fill:#0AA051;" d="M183.018,182.787c0,0.548-0.444,0.992-0.992,0.992s-0.992-0.444-0.992-0.992
							s0.444-0.992,0.992-0.992S183.018,182.239,183.018,182.787z"/>
						<path style="fill:#0AA051;" d="M160.222,182.787c0,0.548-0.444,0.992-0.993,0.992c-0.548,0-0.992-0.444-0.992-0.992
							s0.444-0.992,0.992-0.992C159.778,181.795,160.222,182.239,160.222,182.787z"/>
						<path style="fill:#0AA051;" d="M331.194,198.632c0,0.548-0.444,0.992-0.993,0.992c-0.548,0-0.992-0.444-0.992-0.992
							c0-0.548,0.444-0.992,0.992-0.992C330.749,197.639,331.194,198.084,331.194,198.632z"/>
						<path style="fill:#0AA051;" d="M308.397,198.632c0,0.548-0.444,0.992-0.992,0.992c-0.548,0-0.992-0.444-0.992-0.992
							c0-0.548,0.444-0.992,0.992-0.992C307.953,197.639,308.397,198.084,308.397,198.632z"/>
						<path style="fill:#0AA051;" d="M285.601,198.632c0,0.548-0.444,0.992-0.992,0.992c-0.548,0-0.992-0.444-0.992-0.992
							c0-0.548,0.444-0.992,0.992-0.992C285.157,197.639,285.601,198.084,285.601,198.632z"/>
						<path style="fill:#0AA051;" d="M262.805,198.632c0,0.548-0.444,0.992-0.992,0.992s-0.992-0.444-0.992-0.992
							c0-0.548,0.444-0.992,0.992-0.992S262.805,198.084,262.805,198.632z"/>
						<path style="fill:#0AA051;" d="M240.009,198.632c0,0.548-0.444,0.992-0.992,0.992c-0.548,0-0.992-0.444-0.992-0.992
							c0-0.548,0.444-0.992,0.992-0.992C239.564,197.639,240.009,198.084,240.009,198.632z"/>
						<path style="fill:#0AA051;" d="M217.213,198.632c0,0.548-0.444,0.992-0.993,0.992c-0.548,0-0.992-0.444-0.992-0.992
							c0-0.548,0.444-0.992,0.992-0.992C216.768,197.639,217.213,198.084,217.213,198.632z"/>
						<path style="fill:#0AA051;" d="M194.416,198.632c0,0.548-0.444,0.992-0.992,0.992s-0.992-0.444-0.992-0.992
							c0-0.548,0.444-0.992,0.992-0.992S194.416,198.084,194.416,198.632z"/>
						<path style="fill:#0AA051;" d="M171.62,198.632c0,0.548-0.444,0.992-0.992,0.992s-0.992-0.444-0.992-0.992
							c0-0.548,0.444-0.992,0.992-0.992S171.62,198.084,171.62,198.632z"/>
						<path style="fill:#0AA051;" d="M148.824,198.632c0,0.548-0.444,0.992-0.992,0.992c-0.548,0-0.992-0.444-0.992-0.992
							c0-0.548,0.444-0.992,0.992-0.992C148.379,197.639,148.824,198.084,148.824,198.632z"/>
						<path style="fill:#0AA051;" d="M319.795,214.476c0,0.548-0.444,0.992-0.992,0.992c-0.548,0-0.992-0.444-0.992-0.992
							c0-0.548,0.444-0.992,0.992-0.992C319.351,213.484,319.795,213.928,319.795,214.476z"/>
						<circle style="fill:#0AA051;" cx="296.007" cy="214.476" r="0.992"/>
						<circle style="fill:#0AA051;" cx="273.211" cy="214.476" r="0.992"/>
						<circle style="fill:#0AA051;" cx="250.414" cy="214.476" r="0.992"/>
						<path style="fill:#0AA051;" d="M228.611,214.476c0,0.548-0.444,0.992-0.993,0.992c-0.548,0-0.992-0.444-0.992-0.992
							c0-0.548,0.444-0.992,0.992-0.992C228.166,213.484,228.611,213.928,228.611,214.476z"/>
						<path style="fill:#0AA051;" d="M205.814,214.476c0,0.548-0.444,0.992-0.992,0.992c-0.548,0-0.992-0.444-0.992-0.992
							c0-0.548,0.444-0.992,0.992-0.992C205.37,213.484,205.814,213.928,205.814,214.476z"/>
						<circle style="fill:#0AA051;" cx="182.026" cy="214.476" r="0.992"/>
						<path style="fill:#0AA051;" d="M160.222,214.476c0,0.548-0.444,0.992-0.993,0.992c-0.548,0-0.992-0.444-0.992-0.992
							c0-0.548,0.444-0.992,0.992-0.992C159.778,213.484,160.222,213.928,160.222,214.476z"/>
						<path style="fill:#0AA051;" d="M331.194,230.321c0,0.548-0.444,0.992-0.993,0.992c-0.548,0-0.992-0.444-0.992-0.992
							c0-0.548,0.444-0.992,0.992-0.992C330.749,229.328,331.194,229.772,331.194,230.321z"/>
						<path style="fill:#0AA051;" d="M308.397,230.321c0,0.548-0.444,0.992-0.992,0.992c-0.548,0-0.992-0.444-0.992-0.992
							c0-0.548,0.444-0.992,0.992-0.992C307.953,229.328,308.397,229.772,308.397,230.321z"/>
						<path style="fill:#0AA051;" d="M285.601,230.321c0,0.548-0.444,0.992-0.992,0.992c-0.548,0-0.992-0.444-0.992-0.992
							c0-0.548,0.444-0.992,0.992-0.992C285.157,229.328,285.601,229.772,285.601,230.321z"/>
						<path style="fill:#0AA051;" d="M262.805,230.321c0,0.548-0.444,0.992-0.992,0.992s-0.992-0.444-0.992-0.992
							c0-0.548,0.444-0.992,0.992-0.992S262.805,229.772,262.805,230.321z"/>
						<path style="fill:#0AA051;" d="M240.009,230.321c0,0.548-0.444,0.992-0.992,0.992c-0.548,0-0.992-0.444-0.992-0.992
							c0-0.548,0.444-0.992,0.992-0.992C239.564,229.328,240.009,229.772,240.009,230.321z"/>
						<path style="fill:#0AA051;" d="M217.213,230.321c0,0.548-0.444,0.992-0.993,0.992c-0.548,0-0.992-0.444-0.992-0.992
							c0-0.548,0.444-0.992,0.992-0.992C216.768,229.328,217.213,229.772,217.213,230.321z"/>
						<path style="fill:#0AA051;" d="M194.416,230.321c0,0.548-0.444,0.992-0.992,0.992s-0.992-0.444-0.992-0.992
							c0-0.548,0.444-0.992,0.992-0.992S194.416,229.772,194.416,230.321z"/>
						<path style="fill:#0AA051;" d="M171.62,230.321c0,0.548-0.444,0.992-0.992,0.992s-0.992-0.444-0.992-0.992
							c0-0.548,0.444-0.992,0.992-0.992S171.62,229.772,171.62,230.321z"/>
						<path style="fill:#0AA051;" d="M148.824,230.321c0,0.548-0.444,0.992-0.992,0.992c-0.548,0-0.992-0.444-0.992-0.992
							c0-0.548,0.444-0.992,0.992-0.992C148.379,229.328,148.824,229.772,148.824,230.321z"/>
						<path style="fill:#0AA051;" d="M319.795,246.165c0,0.548-0.444,0.992-0.992,0.992c-0.548,0-0.992-0.444-0.992-0.992
							c0-0.548,0.444-0.992,0.992-0.992C319.351,245.173,319.795,245.617,319.795,246.165z"/>
						<circle style="fill:#0AA051;" cx="296.007" cy="246.165" r="0.992"/>
						<circle style="fill:#0AA051;" cx="273.211" cy="246.165" r="0.992"/>
						<circle style="fill:#0AA051;" cx="250.414" cy="246.165" r="0.992"/>
						<path style="fill:#0AA051;" d="M228.611,246.165c0,0.548-0.444,0.992-0.993,0.992c-0.548,0-0.992-0.444-0.992-0.992
							c0-0.548,0.444-0.992,0.992-0.992C228.166,245.173,228.611,245.617,228.611,246.165z"/>
						<path style="fill:#0AA051;" d="M205.814,246.165c0,0.548-0.444,0.992-0.992,0.992c-0.548,0-0.992-0.444-0.992-0.992
							c0-0.548,0.444-0.992,0.992-0.992C205.37,245.173,205.814,245.617,205.814,246.165z"/>
						<circle style="fill:#0AA051;" cx="182.026" cy="246.165" r="0.992"/>
						<path style="fill:#0AA051;" d="M160.222,246.165c0,0.548-0.444,0.992-0.993,0.992c-0.548,0-0.992-0.444-0.992-0.992
							c0-0.548,0.444-0.992,0.992-0.992C159.778,245.173,160.222,245.617,160.222,246.165z"/>
						<path style="fill:#0AA051;" d="M331.194,262.009c0,0.548-0.444,0.992-0.993,0.992c-0.548,0-0.992-0.444-0.992-0.992
							s0.444-0.992,0.992-0.992C330.749,261.017,331.194,261.461,331.194,262.009z"/>
						<path style="fill:#0AA051;" d="M308.397,262.009c0,0.548-0.444,0.992-0.992,0.992c-0.548,0-0.992-0.444-0.992-0.992
							s0.444-0.992,0.992-0.992C307.953,261.017,308.397,261.461,308.397,262.009z"/>
						<circle style="fill:#0AA051;" cx="284.609" cy="262.009" r="0.992"/>
						<path style="fill:#0AA051;" d="M262.805,262.009c0,0.548-0.444,0.992-0.992,0.992s-0.992-0.444-0.992-0.992
							s0.444-0.992,0.992-0.992S262.805,261.461,262.805,262.009z"/>
						<path style="fill:#0AA051;" d="M240.009,262.009c0,0.548-0.444,0.992-0.992,0.992c-0.548,0-0.992-0.444-0.992-0.992
							s0.444-0.992,0.992-0.992C239.564,261.017,240.009,261.461,240.009,262.009z"/>
						<path style="fill:#0AA051;" d="M217.213,262.009c0,0.548-0.444,0.992-0.993,0.992c-0.548,0-0.992-0.444-0.992-0.992
							s0.444-0.992,0.992-0.992C216.768,261.017,217.213,261.461,217.213,262.009z"/>
						<path style="fill:#0AA051;" d="M194.416,262.009c0,0.548-0.444,0.992-0.992,0.992s-0.992-0.444-0.992-0.992
							s0.444-0.992,0.992-0.992S194.416,261.461,194.416,262.009z"/>
						<circle style="fill:#0AA051;" cx="170.628" cy="262.009" r="0.992"/>
						<circle style="fill:#0AA051;" cx="147.831" cy="262.009" r="0.992"/>
						<path style="fill:#0AA051;" d="M319.795,277.854c0,0.548-0.444,0.992-0.992,0.992c-0.548,0-0.992-0.444-0.992-0.992
							c0-0.548,0.444-0.992,0.992-0.992C319.351,276.861,319.795,277.306,319.795,277.854z"/>
						<circle style="fill:#0AA051;" cx="296.007" cy="277.854" r="0.992"/>
						<circle style="fill:#0AA051;" cx="273.211" cy="277.854" r="0.992"/>
						<circle style="fill:#0AA051;" cx="250.414" cy="277.854" r="0.992"/>
						<path style="fill:#0AA051;" d="M228.611,277.854c0,0.548-0.444,0.992-0.993,0.992c-0.548,0-0.992-0.444-0.992-0.992
							c0-0.548,0.444-0.992,0.992-0.992C228.166,276.861,228.611,277.306,228.611,277.854z"/>
						<path style="fill:#0AA051;" d="M205.814,277.854c0,0.548-0.444,0.992-0.992,0.992c-0.548,0-0.992-0.444-0.992-0.992
							c0-0.548,0.444-0.992,0.992-0.992C205.37,276.861,205.814,277.306,205.814,277.854z"/>
						<circle style="fill:#0AA051;" cx="182.026" cy="277.854" r="0.992"/>
						<path style="fill:#0AA051;" d="M160.222,277.854c0,0.548-0.444,0.992-0.993,0.992c-0.548,0-0.992-0.444-0.992-0.992
							c0-0.548,0.444-0.992,0.992-0.992C159.778,276.861,160.222,277.306,160.222,277.854z"/>
					</g>
				</g>
				
					<path style="fill:none;stroke:#000000;stroke-width:0.75;stroke-linecap:round;stroke-linejoin:round;stroke-miterlimit:10;" d="
					M207.471,193.952c0,0-6.169,31.152-9.253,43.489c0,0,28.684,11.412,41.33,15.73c0,0,1.851,17.371,0,26.729"/>
				<polygon points="200.956,225.482 209.671,241.947 198.218,237.441 				"/>
			</g>
			<g>
				<path style="fill:#FFCFA4;" d="M199.244,134.607c0.737,10.487,9.336,19.003,22.693,15.51l1.305-0.361l-2.98,10.009
					c0,0,2.56,10.156,13.75,9.406c15.775-1.057,19.078-7.669,19.078-7.669l0.522-28.336c0,0,7.04,2.481,7.241-7.948
					c0.212-11.071-7.527-9.008-7.527-9.008l-0.046-0.693c0.215-14.794-9.521-23.181-21.722-24.614l-2.815-0.361
					C228.742,90.542,195.66,83.592,199.244,134.607z"/>
				<g>
					<path style="fill:#FFCA36;" d="M219.854,81.052c0,0,0.882-2.641,4.23-4.982c3.347-2.342,6.649,0,6.649,0
						s16.635-5.354,28.294,4.982c11.659,10.336,4.829,19.763,4.829,19.763s6.735,2.689-0.887,15.395
						C262.968,116.21,234.402,87.216,219.854,81.052z"/>
					<path style="fill:#FF5E43;" d="M253.325,143.644c0,0,10.487-2.924,7.531-9.887c0,0,13.402-15.562,0.525-20.373
						c0,0,2.824-12.856-25.572-23.161c0,0-17.489-17.334-27.133-10.305c0,0-2.182,3.156-3.064,5.86c0,0-10.361-3.304-11.12,8.644
						c0,0,0.327,3.08,2.743,4.624c0,0,1.807-1.65,6.775-3.27c0,0-0.342,2.968,0.261,6.398c0,0,2.007-3.065,4.404-5.706
						c0,0,26.278-2.525,32.695,8.864c6.417,11.389,6.417,16.616,6.417,18.71c0,2.094,4.447-3.761,5.536-7.833
						c0,0,6.973-1.194,7.531,7.833c0,0,0.712,10.797-7.245,9.124L253.325,143.644z"/>
					
						<path style="fill:none;stroke:#000000;stroke-width:0.75;stroke-linecap:round;stroke-linejoin:round;stroke-miterlimit:10;" d="
						M263.855,100.815c0,0-11.447-14.996-33.123-24.745"/>
				</g>
				
					<path style="fill:none;stroke:#000000;stroke-width:0.75;stroke-linecap:round;stroke-linejoin:round;stroke-miterlimit:10;" d="
					M253.208,122.418c0,0-1.385,1.312-0.047,2.001c2.852,1.47-1.026,2.211-0.129,3.316"/>
				
					<path style="fill:none;stroke:#000000;stroke-width:0.75;stroke-linecap:round;stroke-linejoin:round;stroke-miterlimit:10;" d="
					M252.876,119.199c0,0,5.086-2.542,4.23,4.843"/>
				<path d="M221.54,109.533c0.681,0.008,1.654,0.01,2.502,0.079c0.879,0.056,1.768,0.144,2.658,0.288
					c0.89,0.144,1.782,0.33,2.699,0.523c0.929,0.173,1.851,0.409,2.901,0.537l0.024,0.003c0.255,0.031,0.487-0.151,0.518-0.406
					c0.015-0.123-0.02-0.241-0.089-0.334c-0.645-0.869-1.449-1.586-2.338-2.169c-0.88-0.611-1.87-1.022-2.877-1.395
					c-1.012-0.362-2.071-0.599-3.149-0.737c-1.109-0.114-2.115-0.16-3.39,0.079c-0.966,0.181-1.602,1.111-1.421,2.077
					c0.159,0.848,0.895,1.442,1.726,1.452L221.54,109.533z"/>
				<g>
					<defs>
						<path id="SVGID_00000158029545373112997970000009893660023540565947_" d="M203.206,104.214c0,0-1.73,3.217-2.939,9.012
							c0,0,9.31,1.085,10.637-2.417C210.905,110.809,212.103,105.582,203.206,104.214z"/>
					</defs>
					<clipPath id="SVGID_00000142854708314060703940000010055703745747628161_">
						<use xlink:href="#SVGID_00000158029545373112997970000009893660023540565947_"  style="overflow:visible;"/>
					</clipPath>
					<path style="clip-path:url(#SVGID_00000142854708314060703940000010055703745747628161_);" d="M207.655,107.696
						c-0.874-0.401-1.575-0.535-2.385-0.632c-0.788-0.076-1.585-0.048-2.367,0.084c-0.779,0.132-1.554,0.339-2.25,0.731
						c-0.7,0.367-1.326,0.895-1.78,1.574c-0.152,0.227-0.091,0.535,0.136,0.687c0.064,0.043,0.135,0.069,0.207,0.079l0.048,0.006
						c0.777,0.104,1.409,0.094,2.036,0.149c0.617,0.039,1.197,0.047,1.776,0.116c0.576,0.059,1.144,0.138,1.705,0.246
						c0.538,0.083,1.174,0.24,1.583,0.29l0.341,0.041c0.972,0.118,1.855-0.575,1.973-1.547
						C208.772,108.737,208.337,108.009,207.655,107.696z"/>
				</g>
				<g>
					<defs>
						<path id="SVGID_00000117648361860035254260000011643051726851486622_" d="M200.629,111.622c0,0-1.518,5.373-1.614,13.909
							c0,0,4.663,2.355,8.269-0.118c1.666-1.143,2.65-3.665,3.905-7.657C211.188,117.756,206.986,112.749,200.629,111.622z"/>
					</defs>
					<clipPath id="SVGID_00000008843780886392678480000008951659718434103191_">
						<use xlink:href="#SVGID_00000117648361860035254260000011643051726851486622_"  style="overflow:visible;"/>
					</clipPath>
					<g style="clip-path:url(#SVGID_00000008843780886392678480000008951659718434103191_);">
						<g>
							<path d="M192.942,120.779c0.972-1.687,2.359-3.03,4.065-4.055c1.691-1.021,3.825-1.56,5.918-1.294
								c2.082,0.287,3.985,1.247,5.429,2.556c0.74,0.634,1.315,1.409,1.933,2.119c0.495,0.805,0.986,1.598,1.393,2.428
								c0.124,0.253,0.02,0.559-0.234,0.683c-0.178,0.087-0.381,0.062-0.53-0.049l-0.049-0.037c-0.727-0.543-1.369-1.122-2.008-1.69
								l-1.025-0.74c-0.347-0.227-0.632-0.549-1.005-0.711c-0.358-0.189-0.702-0.389-1.038-0.598
								c-0.326-0.24-0.715-0.299-1.062-0.46l-0.524-0.227c-0.175-0.072-0.362-0.086-0.541-0.133
								c-0.364-0.057-0.715-0.216-1.083-0.206c-2.909-0.415-5.969,1.156-8.707,3.165l-0.052,0.038
								c-0.269,0.197-0.647,0.139-0.844-0.13C192.833,121.239,192.827,120.98,192.942,120.779z"/>
						</g>
					</g>
				</g>
				<g>
					<g>
						<path d="M216.108,122.981c0.993-1.664,2.383-2.993,4.072-4.026c1.675-1.025,3.782-1.613,5.89-1.395
							c2.1,0.206,4.064,1.173,5.509,2.503c0.758,0.634,1.316,1.433,1.931,2.157c0.488,0.816,0.961,1.629,1.347,2.475
							c0.129,0.283,0.005,0.618-0.279,0.747c-0.196,0.089-0.416,0.058-0.576-0.064l-0.057-0.044
							c-0.722-0.552-1.351-1.143-1.978-1.72l-1.011-0.748c-0.329-0.247-0.623-0.548-0.989-0.715
							c-0.354-0.189-0.682-0.407-1.016-0.613c-0.331-0.214-0.711-0.286-1.05-0.456l-0.518-0.224l-0.539-0.122
							c-0.358-0.074-0.707-0.216-1.075-0.211c-1.448-0.184-2.956,0.106-4.451,0.694c-1.48,0.599-2.969,1.483-4.356,2.476
							l-0.044,0.031c-0.252,0.181-0.604,0.123-0.785-0.13C216,123.41,215.998,123.168,216.108,122.981z"/>
					</g>
				</g>
				<polygon points="223.242,149.756 230.768,148.24 221.112,156.909 				"/>
				<g>
					<path d="M206.355,133.01c0,0,5.354,0.991,13.498,0.743c0,0-0.031,8.465-7.497,8.134
						C206.751,141.637,206.355,133.01,206.355,133.01z"/>
					<path style="fill:#FF5E43;" d="M219,137.71c0,0-4.38-0.526-7.865,1.815c-1.022,0.686-0.667,2.152,0.57,2.362
						c0.882,0.15,2.074,0.127,3.637-0.314C215.342,141.572,218.013,140.606,219,137.71z"/>
					<path style="fill:#FFFFFF;" d="M206.355,133.01c0,0,4.911,5.186,13.498,0.743L206.355,133.01z"/>
				</g>
				
					<line style="fill:none;stroke:#000000;stroke-width:0.75;stroke-linecap:round;stroke-linejoin:round;stroke-miterlimit:10;" x1="253.611" y1="133.166" x2="250.528" y2="132.035"/>
				<g>
					
						<path style="fill:none;stroke:#000000;stroke-width:0.75;stroke-linecap:round;stroke-linejoin:round;stroke-miterlimit:10;" d="
						M211.153,117.596c-1.444,5.495-3.889,6.999-3.889,6.999s-1.413,0.97-0.982,2.362c0.432,1.392,1.319,0.805,2.393,1.712"/>
					
						<path style="fill:none;stroke:#000000;stroke-width:0.75;stroke-linecap:round;stroke-linejoin:round;stroke-miterlimit:10;" d="
						M211.693,128.051c0,0,0.211-0.059,0.567,0.032c0.356,0.09,0.583,0.473,0.583,0.473"/>
					
						<path style="fill:none;stroke:#000000;stroke-width:0.75;stroke-linecap:round;stroke-linejoin:round;stroke-miterlimit:10;" d="
						M214.515,125.505c0,0,1.793,1.393,0.052,3.504"/>
				</g>
				<g>
					
						<line style="fill:none;stroke:#000000;stroke-width:0.75;stroke-linecap:round;stroke-linejoin:round;stroke-miterlimit:10;" x1="253.325" y1="116.21" x2="235.81" y2="120.544"/>
					
						<path style="fill:none;stroke:#000000;stroke-width:0.75;stroke-linecap:round;stroke-linejoin:round;stroke-miterlimit:10;" d="
						M214.341,121.478c-0.479,5.96,3.964,11.18,9.924,11.659c5.96,0.479,11.18-3.964,11.659-9.924
						c0.479-5.96-3.964-11.18-9.924-11.659C220.04,111.075,214.82,115.518,214.341,121.478z"/>
					
						<path style="fill:none;stroke:#000000;stroke-width:0.75;stroke-linecap:round;stroke-linejoin:round;stroke-miterlimit:10;" d="
						M210.665,119.208c-0.047-5.488-3.794-10.071-8.767-10.471c-5.299-0.426-9.984,4.06-10.463,10.02
						c-0.479,5.96,3.428,11.137,8.727,11.563c2.313,0.186,4.509-0.564,6.289-1.963"/>
					
						<path style="fill:none;stroke:#000000;stroke-width:0.75;stroke-linecap:round;stroke-linejoin:round;stroke-miterlimit:10;" d="
						M214.62,119.757c0,0-1.776-1.857-3.89-0.744"/>
				</g>
				
					<path style="fill:none;stroke:#000000;stroke-width:0.75;stroke-linecap:round;stroke-linejoin:round;stroke-miterlimit:10;" d="
					M252.552,162.283c0,0-5.204,7.308-20.574,6.927c0,0-7.73-0.32-10.889-7.333"/>
			</g>
			<g>
				<path style="fill:#7B11CE;" d="M260.684,158.304l-24.658-8.473c-1.674-0.714-2.452-2.65-1.738-4.324l18.136-42.51
					c0.714-1.674,2.65-2.452,4.324-1.738l24.658,8.473c1.674,0.714,2.452,2.65,1.738,4.324l-18.136,42.51
					C264.293,158.24,262.358,159.018,260.684,158.304z"/>
				<path style="fill:#FFCFA4;" d="M265.912,188.541c0,0,3.173-12.549,4.679-22.23c0,0,14.629-4.087,19.146-5.163
					c0,0,2.342,17.369,2.858,25.992C292.594,187.14,279.949,189.258,265.912,188.541z"/>
				<path style="fill:#FFCFA4;" d="M275.837,131.435c2.997,3.225,12.42,14.465,13.899,29.714c0,0-12.876,6.934-19.146,5.163
					c0,0-10.452-7.296-11.945-14.166c-1.493-6.87-5.824-10.902-9.259-8.363c0,0-2.827,1.311-3.626-0.629
					c-0.799-1.939,1.597-4.791,3.308-6.046c0,0-4.335-0.228-4.677-2.51c-0.342-2.282,1.369-4.563,4.107-4.905
					c0,0-1.597-1.597,0.114-4.221c1.711-2.624,6.16-2.966,8.67-2.852c2.51,0.114,9.139,6.274,9.76,7.415
					c0.621,1.141,0.52-5.476,0-6.845c-0.52-1.369-7.022-9.24-3.029-11.522c3.993-2.282,7.986,5.248,10.153,9.697
					c1.496,3.07,1.288,6.248,1.015,7.924C275.054,130.07,275.299,130.856,275.837,131.435z"/>
				
					<path style="fill:none;stroke:#000000;stroke-width:0.75;stroke-linecap:round;stroke-linejoin:round;stroke-miterlimit:10;" d="
					M263.734,133.941c0,0-2.573-3.514-5.773-5.208c-0.987-0.523-9.462,0.96-9.462,0.96"/>
				
					<path style="fill:none;stroke:#000000;stroke-width:0.75;stroke-linecap:round;stroke-linejoin:round;stroke-miterlimit:10;" d="
					M248.499,137.052c0,0,3.765-1.165,7.617-1.793c3.853-0.628,6.613,6.149,6.613,6.149"/>
				
					<path style="fill:none;stroke:#000000;stroke-width:0.75;stroke-linecap:round;stroke-linejoin:round;stroke-miterlimit:10;" d="
					M269.929,276.655c-20.735-38.879-4.017-88.114-4.017-88.114s10.274,1.302,26.683-1.401c0,0,1.729,25.857,1.729,44.758"/>
			</g>
		</g>
		<rect x="265.631" y="272.747" style="fill:#FF5E43;" width="54.317" height="6.859"/>
		<g>
			<path style="fill:#FFCFA4;" d="M239.641,258.366l-0.145,21.24c0,0,17.729,2.722,23.859-8.423c0,0,9.898,7.097,14.069,3.522
				c0,0,4.65,2.384,8.761-0.119c0,0,3.873,2.622,7.925-0.477c0,0,6.555,2.622,7.985-2.384c1.43-5.006-18.474-12.991-25.863-16.924
				c-7.39-3.933-15.137-0.596-19.189,1.073C252.992,257.542,246.273,258.475,239.641,258.366z"/>
			<path style="fill:none;stroke:#000000;stroke-width:0.75;stroke-linecap:round;stroke-linejoin:round;stroke-miterlimit:10;" d="
				M248.356,273.695c0,0,5.573,2.459,13.113-3.688c0,0,6.184,4.732,10.919,5.48"/>
			<path style="fill:none;stroke:#000000;stroke-width:0.75;stroke-linecap:round;stroke-linejoin:round;stroke-miterlimit:10;" d="
				M277.424,274.705c0,0,3.959-2.977-14.645-11.5"/>
			<path style="fill:none;stroke:#000000;stroke-width:0.75;stroke-linecap:round;stroke-linejoin:round;stroke-miterlimit:10;" d="
				M286.185,274.586c0,0,5.279-4.578-16.849-14.167"/>
			<path style="fill:none;stroke:#000000;stroke-width:0.75;stroke-linecap:round;stroke-linejoin:round;stroke-miterlimit:10;" d="
				M294.11,274.109c0,0,4.975-5.905-19.365-15.575"/>
			
				<line style="fill:none;stroke:#000000;stroke-width:0.75;stroke-linecap:round;stroke-linejoin:round;stroke-miterlimit:10;" x1="239.951" y1="258.371" x2="239.641" y2="277.296"/>
			<path style="fill:none;stroke:#000000;stroke-width:0.75;stroke-linecap:round;stroke-linejoin:round;stroke-miterlimit:10;" d="
				M244.653,258.253c0,0,9.771-1.074,15.718-3.684c5.948-2.61,12.795-1.309,15.861,0.232"/>
		</g>
		<g>
			<path style="fill:#FF5E43;" d="M405.363,211.53h-89.286c-1.58,0-2.987,0.998-3.511,2.488l-21.284,60.635
				c-0.849,2.42,0.946,4.953,3.51,4.953h89.286c1.58,0,2.987-0.998,3.511-2.488l21.285-60.635
				C409.723,214.064,407.927,211.53,405.363,211.53z"/>
			
				<line style="fill:none;stroke:#000000;stroke-width:0.75;stroke-linecap:round;stroke-linejoin:round;stroke-miterlimit:10;" x1="308.065" y1="226.843" x2="299.713" y2="250.635"/>
			<path style="fill:#FFFBF8;" d="M357.087,247.309c-1.02,4.105-4.492,6.775-7.756,5.964c-3.264-0.811-5.083-4.795-4.064-8.9
				c1.02-4.104,4.492-6.775,7.756-5.964C356.288,239.22,358.107,243.205,357.087,247.309z"/>
		</g>
		<g>
			<rect x="152.103" y="240.549" style="fill:#EF65C1;" width="54.317" height="6.859"/>
			<g>
				<path style="fill:#EF65C1;" d="M57.966,173.138h97.41c1.724,0,3.259,1.088,3.83,2.715l23.221,66.152
					c0.927,2.64-1.032,5.404-3.83,5.404h-97.41c-1.724,0-3.259-1.088-3.83-2.715l-23.221-66.152
					C53.209,175.902,55.168,173.138,57.966,173.138z"/>
				
					<path style="fill:none;stroke:#000000;stroke-width:0.75;stroke-linecap:round;stroke-linejoin:round;stroke-miterlimit:10;" d="
					M155.376,173.138c1.724,0,3.259,1.088,3.83,2.715l14.023,39.949"/>
				<path style="fill:#FFFBF8;" d="M110.634,212.173c1.112,4.478,4.901,7.391,8.462,6.507c3.561-0.885,5.546-5.232,4.433-9.71
					c-1.112-4.478-4.901-7.391-8.462-6.506C111.506,203.347,109.521,207.694,110.634,212.173z"/>
			</g>
		</g>
		<g>
			<path style="fill:#94332A;" d="M427.225,169.138H303.198c-1.542,0-2.793-1.25-2.793-2.793V77.349c0-1.542,1.25-2.793,2.793-2.793
				h124.027c1.542,0,2.793,1.25,2.793,2.793v88.996C430.018,167.887,428.768,169.138,427.225,169.138z"/>
			<path style="fill:none;stroke:#000000;stroke-width:0.75;stroke-linecap:round;stroke-linejoin:round;stroke-miterlimit:10;" d="
				M345.208,74.556h82.371c1.347,0,2.44,1.092,2.44,2.439"/>
			<path style="fill:none;stroke:#000000;stroke-width:0.75;stroke-linecap:round;stroke-linejoin:round;stroke-miterlimit:10;" d="
				M427.579,169.138H302.845c-1.347,0-2.44-1.092-2.44-2.439V76.995"/>
			<path style="fill:#FFFBF8;" d="M360.045,154.805H322.84c-1.543,0-2.793-1.25-2.793-2.793V91.681c0-1.542,1.25-2.793,2.793-2.793
				h37.205c1.542,0,2.793,1.25,2.793,2.793v60.331C362.838,153.555,361.587,154.805,360.045,154.805z"/>
			<path style="fill:#FFCA36;" d="M414.495,108.395h-13.921c-1.542,0-2.793-1.25-2.793-2.793V91.681c0-1.542,1.25-2.793,2.793-2.793
				h13.921c1.542,0,2.793,1.25,2.793,2.793v13.921C417.288,107.145,416.038,108.395,414.495,108.395z"/>
			<path style="fill:#EF65C1;" d="M400.291,121.847H386.37c-1.542,0-2.793-1.25-2.793-2.793v-13.921c0-1.542,1.25-2.793,2.793-2.793
				h13.921c1.542,0,2.793,1.25,2.793,2.793v13.921C403.084,120.596,401.833,121.847,400.291,121.847z"/>
			<path style="fill:#39D188;" d="M416.047,149.688h-13.921c-1.543,0-2.793-1.25-2.793-2.793v-13.921
				c0-1.542,1.25-2.793,2.793-2.793h13.921c1.542,0,2.793,1.25,2.793,2.793v13.921C418.84,148.437,417.59,149.688,416.047,149.688z"
				/>
		</g>
		<g>
			<rect x="47.475" y="279.606" style="fill:#94332A;" width="383.093" height="9.981"/>
			
				<line style="fill:none;stroke:#000000;stroke-width:0.75;stroke-linecap:round;stroke-linejoin:round;stroke-miterlimit:10;" x1="62.216" y1="289.587" x2="33.935" y2="458.664"/>
			
				<line style="fill:none;stroke:#000000;stroke-width:0.75;stroke-linecap:round;stroke-linejoin:round;stroke-miterlimit:10;" x1="134.636" y1="289.587" x2="162.916" y2="458.664"/>
			
				<line style="fill:none;stroke:#000000;stroke-width:0.75;stroke-linecap:round;stroke-linejoin:round;stroke-miterlimit:10;" x1="407.888" y1="289.587" x2="436.168" y2="458.664"/>
			
				<line style="fill:none;stroke:#000000;stroke-width:0.75;stroke-linecap:round;stroke-linejoin:round;stroke-miterlimit:10;" x1="150.127" y1="279.738" x2="150.127" y2="289.718"/>
		</g>
		<g>
			<rect x="79.393" y="247.408" width="129.095" height="7.985"/>
			
				<line style="fill:none;stroke:#000000;stroke-width:0.75;stroke-linecap:round;stroke-linejoin:round;stroke-miterlimit:10;" x1="85.657" y1="255.393" x2="76.961" y2="279.606"/>
			
				<line style="fill:none;stroke:#000000;stroke-width:0.75;stroke-linecap:round;stroke-linejoin:round;stroke-miterlimit:10;" x1="124.893" y1="255.393" x2="133.589" y2="279.606"/>
			
				<line style="fill:none;stroke:#000000;stroke-width:0.75;stroke-linecap:round;stroke-linejoin:round;stroke-miterlimit:10;" x1="163.873" y1="255.393" x2="155.176" y2="279.606"/>
			
				<line style="fill:none;stroke:#000000;stroke-width:0.75;stroke-linecap:round;stroke-linejoin:round;stroke-miterlimit:10;" x1="203.108" y1="255.393" x2="211.805" y2="279.606"/>
		</g>
		<g>
			<path style="fill:#39D188;" d="M160.755,124.081c-1.239,0.58-2.089,1.757-2.263,3.115c-1.039,8.115-7.972,14.387-16.37,14.387
				l0,0h-41.165c-9.115,0-16.505-7.389-16.505-16.505v-37.75c0-9.115,7.389-16.505,16.505-16.505h41.165
				c9.115,0,16.505,7.389,16.505,16.505v12.913c0,1.546,0.893,2.953,2.291,3.613l19.665,19.933c1.129,0.532,1.127,2.138-0.003,2.668
				L160.755,124.081z"/>
			<g>
				
					<path style="fill:#FFFBF8;stroke:#000000;stroke-width:0.75;stroke-linecap:round;stroke-linejoin:round;stroke-miterlimit:10;" d="
					M125.802,122.781c0,2.523-2.045,4.568-4.568,4.568c-2.523,0-4.568-2.045-4.568-4.568"/>
				
					<path style="fill:#FFFBF8;stroke:#000000;stroke-width:0.75;stroke-linecap:round;stroke-linejoin:round;stroke-miterlimit:10;" d="
					M114.088,117.421h14.292v3.679c0,0.928-0.753,1.681-1.681,1.681h-10.93c-0.928,0-1.681-0.753-1.681-1.681V117.421z"/>
				
					<path style="fill:#FFCA36;stroke:#000000;stroke-width:0.75;stroke-linecap:round;stroke-linejoin:round;stroke-miterlimit:10;" d="
					M114.088,117.421c0,0-0.103-4.036-2.21-6.057c-3.264-3.13-10.011-22.325,9.356-22.325s12.619,19.195,9.356,22.325
					c-2.107,2.021-2.21,6.057-2.21,6.057H114.088z"/>
				
					<path style="fill:none;stroke:#000000;stroke-width:0.75;stroke-linecap:round;stroke-linejoin:round;stroke-miterlimit:10;" d="
					M123.438,117.386c0,0-1.249-14.938,2.104-17.173c3.352-2.235,2.038,7.757-4.273,7.757s-7.625-9.992-4.273-7.757
					c3.353,2.235,2.104,17.173,2.104,17.173"/>
				<g>
					
						<line style="fill:none;stroke:#000000;stroke-width:0.75;stroke-linecap:round;stroke-linejoin:round;stroke-miterlimit:10;" x1="136.534" y1="90.66" x2="142.789" y2="87.276"/>
					
						<line style="fill:none;stroke:#000000;stroke-width:0.75;stroke-linecap:round;stroke-linejoin:round;stroke-miterlimit:10;" x1="136.534" y1="115.153" x2="142.789" y2="118.537"/>
					
						<line style="fill:none;stroke:#000000;stroke-width:0.75;stroke-linecap:round;stroke-linejoin:round;stroke-miterlimit:10;" x1="138.688" y1="102.907" x2="149.455" y2="102.907"/>
					
						<line style="fill:none;stroke:#000000;stroke-width:0.75;stroke-linecap:round;stroke-linejoin:round;stroke-miterlimit:10;" x1="105.934" y1="115.153" x2="99.679" y2="118.537"/>
					
						<line style="fill:none;stroke:#000000;stroke-width:0.75;stroke-linecap:round;stroke-linejoin:round;stroke-miterlimit:10;" x1="105.934" y1="90.66" x2="99.679" y2="87.276"/>
					
						<line style="fill:none;stroke:#000000;stroke-width:0.75;stroke-linecap:round;stroke-linejoin:round;stroke-miterlimit:10;" x1="103.781" y1="102.907" x2="93.014" y2="102.907"/>
				</g>
			</g>
		</g>
	</g>
</g>
</svg>
